<?xml version="1.0" encoding="UTF-8"?>
<svg version="1.1" xmlns="http://www.w3.org/2000/svg" width="500" height="500">
<path d="M0 0 C8.99558535 8.00200516 17.00340499 16.58332918 24.421875 26.07421875 C25.18757813 27.01136719 25.95328125 27.94851562 26.7421875 28.9140625 C51.35400791 59.6590536 66.42174528 96.51471359 73.421875 135.07421875 C73.65519531 136.35167969 73.88851563 137.62914062 74.12890625 138.9453125 C75.67861383 148.58917624 76.11275497 158.32380533 76.421875 168.07421875 C76.45692139 169.15558105 76.45692139 169.15558105 76.49267578 170.25878906 C77.58242248 209.72776627 67.15309775 249.43860301 48.421875 284.07421875 C48.10782715 284.66219238 47.7937793 285.25016602 47.47021484 285.85595703 C39.41038897 300.84447837 29.64683744 314.32422192 18.421875 327.07421875 C17.84308594 327.76386719 17.26429688 328.45351563 16.66796875 329.1640625 C6.81596539 340.84325445 -4.30480248 351.01770831 -16.578125 360.07421875 C-17.15030762 360.50186523 -17.72249023 360.92951172 -18.31201172 361.37011719 C-31.89934324 371.49641617 -46.26569673 379.83915599 -61.578125 387.07421875 C-62.64804687 387.58597656 -63.71796875 388.09773438 -64.8203125 388.625 C-119.5636292 413.45357029 -183.32814398 414.2101676 -239.578125 394.07421875 C-279.49562884 378.95544656 -316.49841003 353.1130022 -342.578125 319.07421875 C-343.30128906 318.15640625 -344.02445313 317.23859375 -344.76953125 316.29296875 C-370.2910632 283.27032567 -385.80613248 244.26134038 -391.578125 203.07421875 C-391.73498779 201.9752124 -391.73498779 201.9752124 -391.89501953 200.85400391 C-394.62385998 178.33496814 -394.1291318 153.26088802 -389.578125 131.07421875 C-389.37944824 130.06327148 -389.18077148 129.05232422 -388.97607422 128.01074219 C-380.511742 85.72078272 -361.2585861 48.1522392 -332.578125 16.07421875 C-332.05895508 15.49188477 -331.53978516 14.90955078 -331.00488281 14.30957031 C-325.1955385 7.82312945 -319.33359486 1.5911858 -312.578125 -3.92578125 C-311.46295453 -4.87561317 -310.34843616 -5.82621096 -309.234375 -6.77734375 C-237.10453348 -67.65400228 -132.27203683 -78.49931708 0 0 Z " fill="#D9D9D9" transform="translate(412.578125,79.92578125)"/>
<path d="M0 0 C1.31744915 0.62814806 2.63516814 1.25573041 3.953125 1.8828125 C29.29457995 14.07899221 50.37369502 32.6381008 66 56 C66.67675781 57.0003125 67.35351562 58.000625 68.05078125 59.03125 C74.67757572 69.13462829 79.25719596 79.52360549 83 91 C83.21688477 91.66451172 83.43376953 92.32902344 83.65722656 93.01367188 C85.2499507 97.97246248 86.67724403 102.96276751 88 108 C88.32355469 109.22074219 88.64710938 110.44148438 88.98046875 111.69921875 C93.40189749 131.89663736 92.905526 155.96009067 88 176 C87.76651855 177.04921631 87.76651855 177.04921631 87.52832031 178.11962891 C81.20842325 206.29425982 65.87086731 231.37416052 46 252 C45.35804688 252.70511719 44.71609375 253.41023438 44.0546875 254.13671875 C33.91785585 264.95372741 20.7551602 272.68027738 8 280 C6.97132813 280.6496875 5.94265625 281.299375 4.8828125 281.96875 C-0.43403568 284.99520662 -6.33518854 286.67188425 -12.125 288.5625 C-13.27226562 288.94857422 -14.41953125 289.33464844 -15.6015625 289.73242188 C-28.31233495 293.93356119 -40.90033908 297.05471463 -54.3359375 297.30859375 C-55.5183754 297.33155518 -55.5183754 297.33155518 -56.72470093 297.35498047 C-75.29400656 297.64820999 -92.20684286 296.92342892 -110 291 C-111.30469238 290.58306885 -111.30469238 290.58306885 -112.63574219 290.15771484 C-128.94450584 284.87916733 -143.23654688 277.15485343 -157 267 C-157.80308594 266.4225 -158.60617188 265.845 -159.43359375 265.25 C-191.43779988 241.07144293 -213.29148099 203.65738471 -219 164 C-219.53607883 158.03783751 -219.53927829 152.07479736 -219.46655273 146.09326172 C-219.43750364 143.50032461 -219.44603143 140.90943865 -219.45898438 138.31640625 C-219.43946091 123.40637159 -218.1722693 108.10401212 -213 94 C-212.54882812 92.76894531 -212.09765625 91.53789062 -211.6328125 90.26953125 C-196.6455601 50.55699928 -167.73702947 17.48609097 -128.78515625 -0.22021484 C-125.41974726 -1.69027999 -122.01220867 -2.97348003 -118.53125 -4.140625 C-116.88613984 -4.69915005 -115.25804305 -5.31162192 -113.65625 -5.984375 C-79.24555507 -20.14067355 -32.73825884 -16.07285559 0 0 Z " fill="#FEFEFE" transform="translate(321,111)"/>
<path d="M0 0 C8.99558535 8.00200516 17.00340499 16.58332918 24.421875 26.07421875 C25.18757813 27.01136719 25.95328125 27.94851562 26.7421875 28.9140625 C51.35400791 59.6590536 66.42174528 96.51471359 73.421875 135.07421875 C73.65519531 136.35167969 73.88851563 137.62914062 74.12890625 138.9453125 C75.67861383 148.58917624 76.11275497 158.32380533 76.421875 168.07421875 C76.45692139 169.15558105 76.45692139 169.15558105 76.49267578 170.25878906 C77.58242248 209.72776627 67.15309775 249.43860301 48.421875 284.07421875 C48.10782715 284.66219238 47.7937793 285.25016602 47.47021484 285.85595703 C39.41038897 300.84447837 29.64683744 314.32422192 18.421875 327.07421875 C17.84308594 327.76386719 17.26429688 328.45351563 16.66796875 329.1640625 C6.81596539 340.84325445 -4.30480248 351.01770831 -16.578125 360.07421875 C-17.15030762 360.50186523 -17.72249023 360.92951172 -18.31201172 361.37011719 C-31.89934324 371.49641617 -46.26569673 379.83915599 -61.578125 387.07421875 C-62.64804687 387.58597656 -63.71796875 388.09773438 -64.8203125 388.625 C-119.5636292 413.45357029 -183.32814398 414.2101676 -239.578125 394.07421875 C-279.49562884 378.95544656 -316.49841003 353.1130022 -342.578125 319.07421875 C-343.30128906 318.15640625 -344.02445313 317.23859375 -344.76953125 316.29296875 C-370.2910632 283.27032567 -385.80613248 244.26134038 -391.578125 203.07421875 C-391.73498779 201.9752124 -391.73498779 201.9752124 -391.89501953 200.85400391 C-394.62385998 178.33496814 -394.1291318 153.26088802 -389.578125 131.07421875 C-389.37944824 130.06327148 -389.18077148 129.05232422 -388.97607422 128.01074219 C-380.511742 85.72078272 -361.2585861 48.1522392 -332.578125 16.07421875 C-332.05895508 15.49188477 -331.53978516 14.90955078 -331.00488281 14.30957031 C-325.1955385 7.82312945 -319.33359486 1.5911858 -312.578125 -3.92578125 C-311.46295453 -4.87561317 -310.34843616 -5.82621096 -309.234375 -6.77734375 C-237.10453348 -67.65400228 -132.27203683 -78.49931708 0 0 Z M-202.35351562 -42.47265625 C-204.53970288 -41.93522655 -206.72828106 -41.48262857 -208.9375 -41.05078125 C-244.26700595 -33.89451078 -278.89194469 -15.01155102 -305.578125 9.07421875 C-305.578125 9.73421875 -305.578125 10.39421875 -305.578125 11.07421875 C-306.12855469 11.29851562 -306.67898438 11.5228125 -307.24609375 11.75390625 C-315.11399066 16.20842745 -321.88163582 25.1215169 -327.578125 32.07421875 C-328.31289063 32.97011719 -329.04765625 33.86601563 -329.8046875 34.7890625 C-357.58035481 69.75113262 -377.4299196 114.87430989 -377.81640625 160.0390625 C-377.8262001 160.98153839 -377.83599396 161.92401428 -377.84608459 162.89505005 C-378.15250296 192.20787634 -378.15250296 192.20787634 -373.578125 221.07421875 C-373.36381836 221.9667334 -373.14951172 222.85924805 -372.92871094 223.77880859 C-371.39915481 229.96493916 -369.58979563 236.02875964 -367.578125 242.07421875 C-367.16119385 243.33298828 -367.16119385 243.33298828 -366.73583984 244.6171875 C-357.75469133 271.10929357 -343.83283098 294.94422941 -325.578125 316.07421875 C-324.87429688 316.88890625 -324.17046875 317.70359375 -323.4453125 318.54296875 C-313.35683686 329.96934259 -302.77799984 339.96937768 -290.578125 349.07421875 C-290.03494629 349.48881348 -289.49176758 349.9034082 -288.93212891 350.33056641 C-267.62331096 366.57781563 -244.04445588 377.23842463 -218.578125 385.07421875 C-217.32257813 385.46609375 -216.06703125 385.85796875 -214.7734375 386.26171875 C-158.87272249 401.91881179 -98.90145979 391.46855246 -48.5703125 363.97265625 C-40.83042345 359.58622009 -33.65280283 354.45223653 -26.578125 349.07421875 C-25.63710938 348.36523438 -24.69609375 347.65625 -23.7265625 346.92578125 C-17.00240625 341.69588194 -10.75873156 335.92654392 -4.578125 330.07421875 C-3.64742188 329.19765625 -2.71671875 328.32109375 -1.7578125 327.41796875 C5.39095484 320.49323685 11.47059658 313.03034499 17.421875 305.07421875 C18.06189453 304.23334717 18.06189453 304.23334717 18.71484375 303.37548828 C25.96856663 293.82010334 31.89544191 283.71213883 37.421875 273.07421875 C37.78023438 272.39020996 38.13859375 271.70620117 38.5078125 271.00146484 C46.72229123 255.11679381 52.25210579 238.02505649 56.296875 220.63671875 C56.48789795 219.82307861 56.6789209 219.00943848 56.87573242 218.17114258 C60.06738033 203.53877581 60.79954737 188.87332618 60.734375 173.94921875 C60.73213928 172.67495026 60.73213928 172.67495026 60.7298584 171.37493896 C60.68706428 157.76034038 60.01441122 144.47271412 57.421875 131.07421875 C57.21304688 129.96143555 57.21304688 129.96143555 57 128.82617188 C48.64246181 85.76163481 26.21817186 47.82171007 -4.578125 17.07421875 C-5.29871094 16.31882813 -6.01929688 15.5634375 -6.76171875 14.78515625 C-22.90330381 -1.94390418 -42.77508626 -14.50691056 -63.45678711 -24.86279297 C-64.85543194 -25.56364457 -66.24963973 -26.27343193 -67.63891602 -26.99267578 C-72.08387841 -29.27687011 -76.54371033 -31.16810367 -81.265625 -32.80078125 C-82.35411743 -33.17759033 -82.35411743 -33.17759033 -83.46459961 -33.56201172 C-92.74075551 -36.71847462 -102.07215495 -39.54502521 -111.578125 -41.92578125 C-112.4144043 -42.14041016 -113.25068359 -42.35503906 -114.11230469 -42.57617188 C-141.34788864 -49.22414471 -175.14840802 -49.24533232 -202.35351562 -42.47265625 Z " fill="#FE6E2A" transform="translate(412.578125,79.92578125)"/>
<path d="M0 0 C1.15677246 0.29503418 2.31354492 0.59006836 3.50537109 0.89404297 C15.79009265 4.08938001 27.53768266 7.50814363 39 13 C40.78769317 13.80383355 42.57676845 14.60460015 44.3671875 15.40234375 C65.91763099 25.23080493 84.33958984 38.07600161 101.7890625 54.01171875 C103.55080083 55.5960382 105.33088787 57.09390998 107.1875 58.5625 C110.85862792 61.74414419 113.86780313 65.29667319 117 69 C117.82628906 69.9384375 118.65257812 70.876875 119.50390625 71.84375 C136.56178831 91.33142437 149.82279368 113.80065719 159 138 C159.49391235 139.28874023 159.49391235 139.28874023 159.99780273 140.60351562 C173.29252461 176.08973556 177.04567968 218.79769502 169 256 C168.69400879 257.47049805 168.69400879 257.47049805 168.38183594 258.97070312 C161.14295795 293.17361136 147.11973089 324.80763557 125 352 C124.58169922 352.52126465 124.16339844 353.0425293 123.73242188 353.57958984 C112.83322764 367.11206269 100.70990275 379.40184518 86.71630859 389.73242188 C85.01432411 390.98942094 83.32955002 392.2672632 81.64453125 393.546875 C35.79954127 427.83452723 -23.28750401 440.42825387 -79.4440918 432.90942383 C-104.76579853 429.14617661 -128.48414228 421.05246873 -151 409 C-151.60295898 408.67918457 -152.20591797 408.35836914 -152.82714844 408.02783203 C-170.66203258 398.4487576 -186.33695732 385.88421877 -201 372 C-201.93070312 371.1234375 -202.86140625 370.246875 -203.8203125 369.34375 C-210.96907984 362.4190181 -217.04872158 354.95612624 -223 347 C-223.42667969 346.43941895 -223.85335937 345.87883789 -224.29296875 345.30126953 C-231.54544163 335.74753122 -237.48273095 325.64110868 -243 315 C-243.35835937 314.31067383 -243.71671875 313.62134766 -244.0859375 312.91113281 C-252.17427135 297.1221578 -257.9874948 280.26202617 -262 263 C-262.30103638 261.73820923 -262.30103638 261.73820923 -262.6081543 260.45092773 C-266.04277047 245.27001411 -266.40592018 230.17903581 -266.4375 214.6875 C-266.44349213 213.71588928 -266.44948425 212.74427856 -266.45565796 211.7432251 C-266.52703953 194.33529726 -264.88775757 177.40674777 -260.3125 160.5625 C-259.93230713 159.1401001 -259.93230713 159.1401001 -259.54443359 157.68896484 C-250.30623643 124.28847636 -233.65418637 93.36304394 -210 68 C-208.78643327 66.60871429 -207.57780518 65.21309981 -206.375 63.8125 C-199.53742522 55.98674425 -199.53742522 55.98674425 -196 53 C-195.34 53 -194.68 53 -194 53 C-194 52.34 -194 51.68 -194 51 C-191.99622308 49.24593388 -189.98753089 47.61455143 -187.875 46 C-187.24118408 45.51088135 -186.60736816 45.0217627 -185.9543457 44.51782227 C-183.977253 43.00143985 -181.99075454 41.49839076 -180 40 C-179.41814941 39.56026855 -178.83629883 39.12053711 -178.23681641 38.66748047 C-153.6653924 20.23001751 -125.43768188 6.53292613 -95.23339844 0.46923828 C-92.95478203 -0.00950032 -90.70464107 -0.56668797 -88.4453125 -1.12890625 C-60.97210183 -7.42136654 -27.22533538 -7.05569641 0 0 Z M-93.8125 8.1875 C-94.72700928 8.39963135 -95.64151855 8.6117627 -96.58374023 8.83032227 C-113.62553352 12.94527399 -129.92542984 19.25836673 -145.140625 27.9765625 C-147.35503969 29.195421 -149.64653522 30.0847637 -152 31 C-182.18862159 48.46361178 -207.20273957 72.69372266 -226 102 C-226.65226562 102.98355469 -227.30453125 103.96710938 -227.9765625 104.98046875 C-228.60304688 105.93566406 -229.22953125 106.89085937 -229.875 107.875 C-230.42929688 108.71804687 -230.98359375 109.56109375 -231.5546875 110.4296875 C-233.1209781 113.21514484 -234.00358128 115.97040299 -235 119 C-236.25390625 121.16015625 -236.25390625 121.16015625 -237.5625 123.0625 C-239.53310006 126.07025798 -240.45651403 128.41299262 -241 132 C-241.66 132.33 -242.32 132.66 -243 133 C-244.70834165 136.96335262 -245.90005781 140.28791192 -246.5 144.5625 C-246.9617794 147.73723339 -247.83762871 150.08569554 -249.171875 152.9765625 C-251.52096184 158.71631242 -252.83487651 164.92343285 -254 171 C-254.2371875 172.21171875 -254.474375 173.4234375 -254.71875 174.671875 C-254.97954635 176.03117721 -255.23995445 177.39055396 -255.5 178.75 C-255.69529297 179.74773437 -255.69529297 179.74773437 -255.89453125 180.765625 C-257.81062911 190.82997738 -258.15865925 200.66261948 -258.13037109 210.87573242 C-258.12498812 213.19261139 -258.13035439 215.50929862 -258.13671875 217.82617188 C-258.13605829 219.31510459 -258.13477779 220.80403719 -258.1328125 222.29296875 C-258.13483673 222.97747604 -258.13686096 223.66198334 -258.13894653 224.36723328 C-258.11965257 228.3531618 -257.69962567 232.08216682 -257 236 C-257.04125 237.010625 -257.0825 238.02125 -257.125 239.0625 C-256.97449499 243.80340775 -255.91019911 248.02689806 -254.78125 252.62109375 C-254.07734015 255.66550387 -253.56717129 258.6590526 -253.125 261.75 C-245.51135694 309.38246113 -212.37190148 355.82610753 -174.0546875 383.91015625 C-126.35822817 418.40182858 -69.64627335 432.54926059 -11.1875 423.25 C-7.43545813 422.58866677 -3.71558007 421.84150249 0 421 C0.69109863 420.84515137 1.38219727 420.69030273 2.09423828 420.53076172 C6.14841222 419.57913212 10.06055815 418.34289015 14 417 C15.5141779 416.51387099 17.02851292 416.02823123 18.54296875 415.54296875 C71.06670428 398.32207185 115.38643668 360.56221677 140.84155273 311.45678711 C153.99127048 285.31056971 163.12962442 255.77777157 163.16796875 226.3046875 C163.17129715 225.39478058 163.17462555 224.48487366 163.17805481 223.5473938 C163.18309266 221.62958273 163.18546411 219.71176299 163.18530273 217.79394531 C163.18747806 214.90414448 163.20563688 212.01473295 163.22460938 209.125 C163.25665512 198.88255098 162.92388627 189.08913176 161 179 C160.74246948 177.61699707 160.74246948 177.61699707 160.47973633 176.20605469 C149.49345319 120.56137726 118.32962907 72.04119035 71.56201172 39.70947266 C54.17903966 28.11088581 35.16799141 18.57653631 15 13 C14.07960938 12.6803125 13.15921875 12.360625 12.2109375 12.03125 C8.18726662 10.73897614 4.12717521 9.8330834 0 8.9375 C-0.78117187 8.76412109 -1.56234375 8.59074219 -2.3671875 8.41210938 C-6.56561605 7.48972734 -10.75514105 6.68534388 -15 6 C-16.06879395 5.82629883 -17.13758789 5.65259766 -18.23876953 5.47363281 C-27.3886792 4.12025364 -36.33409005 3.68808523 -45.57861328 3.73925781 C-47.86648235 3.74996016 -50.15356097 3.73929724 -52.44140625 3.7265625 C-66.42360783 3.71204989 -80.17341761 4.98290564 -93.8125 8.1875 Z " fill="#FEFBF9" transform="translate(301,38)"/>
<path d="M0 0 C13.06221124 7.0221662 18.35365964 18.73466811 23.984375 31.71875 C31.97043966 51.36813343 31.97043966 51.36813343 46.0625 66.4375 C48.70278114 67.25831442 51.363707 67.81960386 54.0625 68.4375 C54.03929687 67.23351562 54.01609375 66.02953125 53.9921875 64.7890625 C53.97343137 63.21354785 53.95523101 61.63802652 53.9375 60.0625 C53.92074219 59.2684375 53.90398437 58.474375 53.88671875 57.65625 C53.86914527 55.58257985 53.95914832 53.50866759 54.0625 51.4375 C56.66519085 48.83480915 57.78206793 49.18024351 61.40234375 49.171875 C62.9965918 49.16800781 62.9965918 49.16800781 64.62304688 49.1640625 C65.73744141 49.17179687 66.85183594 49.17953125 68 49.1875 C69.11052734 49.17976563 70.22105469 49.17203125 71.36523438 49.1640625 C72.42935547 49.16664063 73.49347656 49.16921875 74.58984375 49.171875 C76.05538696 49.17525879 76.05538696 49.17525879 77.55053711 49.17871094 C80.0625 49.4375 80.0625 49.4375 83.0625 51.4375 C83.45068359 53.95263672 83.45068359 53.95263672 83.4609375 57.1171875 C83.46480469 58.27476562 83.46867188 59.43234375 83.47265625 60.625 C83.45525391 62.4503125 83.45525391 62.4503125 83.4375 64.3125 C83.44910156 65.49070312 83.46070313 66.66890625 83.47265625 67.8828125 C83.43336256 79.77570197 81.60143238 90.89497748 74.0625 100.4375 C68.24370772 106.13802415 62.25602031 108.44660372 54.125 108.75 C40.60706124 108.4360588 28.44819998 104.52683683 16.0625 99.4375 C16.10375 100.22125 16.145 101.005 16.1875 101.8125 C16.0625 104.4375 16.0625 104.4375 14.0625 106.4375 C12.05114746 106.69819641 12.05114746 106.69819641 9.55273438 106.7121582 C8.61836548 106.72169022 7.68399658 106.73122223 6.72131348 106.74104309 C5.70984253 106.74013168 4.69837158 106.73922028 3.65625 106.73828125 C2.62060913 106.74256638 1.58496826 106.7468515 0.51794434 106.75126648 C-1.67439034 106.75701633 -3.8667441 106.75750524 -6.05908203 106.75317383 C-9.42383148 106.75001284 -12.78770305 106.77346899 -16.15234375 106.79882812 C-18.27864472 106.80110084 -20.40494806 106.80180474 -22.53125 106.80078125 C-23.54272095 106.809991 -24.55419189 106.81920074 -25.59631348 106.82868958 C-26.53068237 106.82246078 -27.46505127 106.81623199 -28.42773438 106.80981445 C-29.66444885 106.81075859 -29.66444885 106.81075859 -30.92614746 106.8117218 C-31.5898938 106.68822861 -32.25364014 106.56473541 -32.9375 106.4375 C-34.9375 103.4375 -34.9375 103.4375 -34.625 100.8125 C-33.9375 98.4375 -33.9375 98.4375 -32.9375 97.4375 C-29.98044679 97.34881701 -27.04684944 97.32229704 -24.08984375 97.33984375 C-22.76020348 97.34196617 -22.76020348 97.34196617 -21.40370178 97.34413147 C-18.56076746 97.34974785 -15.71791069 97.36230309 -12.875 97.375 C-10.95247509 97.38001289 -9.02994896 97.38457616 -7.10742188 97.38867188 C-2.38408451 97.39972259 2.33919458 97.41699817 7.0625 97.4375 C7.02125 96.15875 6.98 94.88 6.9375 93.5625 C6.8671875 91.3828125 6.8671875 91.3828125 7.0625 89.4375 C9.0625 87.4375 9.0625 87.4375 11.72265625 87.109375 C15.76235275 87.50625746 18.90214185 88.94038646 22.5 90.6875 C34.47510263 96.17909869 48.81572024 101.77555334 62 97.4375 C67.95115632 93.55103056 70.6338354 87.3535425 72.50390625 80.64453125 C73.77795804 73.32987029 73.8419192 65.84597246 74.0625 58.4375 C70.7625 58.4375 67.4625 58.4375 64.0625 58.4375 C64.124375 59.613125 64.18625 60.78875 64.25 62 C64.24044383 67.39923533 62.36791577 71.31619938 59.5625 75.875 C55.32222723 78.52517048 50.90597451 78.10834135 46.0625 77.4375 C34.92129619 73.76127787 28.01404189 64.23734079 22.90380859 54.15039062 C20.53490569 49.13913302 18.33792357 44.05279978 16.14892578 38.9609375 C9.44733859 21.96752901 9.44733859 21.96752901 -3.1875 9.4375 C-9.57739279 7.73352859 -16.00221483 7.23519095 -22.1875 9.9375 C-31.90121683 15.65846206 -35.97212871 25.35397429 -38.875 35.81640625 C-41.45654086 46.52731856 -42.16842463 56.85748129 -42.3671875 67.83203125 C-42.41359375 69.25708984 -42.41359375 69.25708984 -42.4609375 70.7109375 C-42.48075684 71.57122559 -42.50057617 72.43151367 -42.52099609 73.31787109 C-42.65844238 74.01734863 -42.79588867 74.71682617 -42.9375 75.4375 C-45.9375 77.4375 -45.9375 77.4375 -48.5 77.1875 C-50.9375 76.4375 -50.9375 76.4375 -52.9375 74.4375 C-53.17185082 71.62224659 -53.26910999 68.94175561 -53.25 66.125 C-53.24581055 65.288479 -53.24162109 64.45195801 -53.23730469 63.59008789 C-53.00704862 50.36138702 -51.88277946 36.41952475 -45.9375 24.4375 C-45.66421875 23.70015625 -45.3909375 22.9628125 -45.109375 22.203125 C-41.05086022 11.50340421 -32.74881997 4.20940451 -22.65625 -0.6640625 C-15.86929965 -2.90687655 -6.64765691 -2.70314844 0 0 Z " fill="#EF7A29" transform="translate(240.9375,198.5625)"/>
<path d="M0 0 C5.24497726 1.91223129 8.59620242 4.90394913 11 10 C11.89285822 15.65138668 11.24594068 20.18705347 8 25 C4.32297423 28.40124883 1.71377437 29.83832317 -3.3125 30.3125 C-8.48484441 29.87416573 -11.37018098 27.79842098 -14.8125 24 C-17.30136713 19.80822378 -17.33296956 15.82805857 -17 11 C-13.94880738 2.80995665 -8.55759649 -0.70144234 0 0 Z " fill="#29407F" transform="translate(313,212)"/>
<path d="M0 0 C2.37155874 1.81354492 2.99562682 2.68427217 3.3984375 5.61328125 C3.58281799 9.83275776 3.49743334 12.03631504 1.1875 15.6875 C-2.94962293 18.30486349 -6.10641903 18.5234283 -10.875 17.625 C-13.875 16.1875 -13.875 16.1875 -15.875 13.625 C-16.84009321 10.56411267 -17.17713722 7.82309393 -16.875 4.625 C-13.09543644 -1.85425181 -6.77161391 -3.23859795 0 0 Z " fill="#778B35" transform="translate(238.875,226.375)"/>
<path d="M0 0 C0.66 0.33 1.32 0.66 2 1 C-5.29840547 9.44646925 -5.29840547 9.44646925 -9 13 C-9.66 12.67 -10.32 12.34 -11 12 C-7.37 8.04 -3.74 4.08 0 0 Z " fill="#FFA174" transform="translate(92,83)"/>
</svg>
